<svg width="115" height="81" viewBox="0 0 115 81" fill="none" xmlns="http://www.w3.org/2000/svg">
<rect width="115" height="81" rx="16" fill="white"/>
<path d="M23.6 61.24C21.84 61.24 20.368 60.504 19.184 59.032C18 57.56 17.408 55.544 17.408 52.984C17.408 51.672 17.552 50.2 17.84 48.568C18.128 46.904 18.464 45.224 18.848 43.528C19.232 41.832 19.568 40.248 19.856 38.776C20.144 37.272 20.288 36.024 20.288 35.032C20.288 34.328 20.192 33.784 20 33.4C19.808 32.984 19.456 32.776 18.944 32.776C18.56 32.776 18.112 32.952 17.6 33.304C17.088 33.656 16.704 34.344 16.448 35.368L15.968 35.176C15.968 32.424 16.592 30.248 17.84 28.648C19.12 27.048 20.832 26.248 22.976 26.248C24.992 26.248 26.384 26.904 27.152 28.216C27.952 29.528 28.352 31.176 28.352 33.16C28.352 34.632 28.192 36.2 27.872 37.864C27.584 39.528 27.248 41.192 26.864 42.856C26.48 44.488 26.128 46.008 25.808 47.416C25.52 48.824 25.376 49.992 25.376 50.92C25.376 52.296 25.728 52.984 26.432 52.984C26.848 52.984 27.408 52.696 28.112 52.12C28.816 51.512 29.552 50.696 30.32 49.672C31.12 48.616 31.888 47.432 32.624 46.12C33.36 44.776 33.984 43.368 34.496 41.896C34.432 41.192 34.384 40.52 34.352 39.88C34.32 39.208 34.304 38.616 34.304 38.104C34.304 35.544 34.544 33.48 35.024 31.912C35.536 30.344 36.176 29.192 36.944 28.456C37.712 27.72 38.496 27.352 39.296 27.352C40.416 27.352 41.424 27.976 42.32 29.224C43.216 30.44 43.664 32.104 43.664 34.216C43.664 35.528 43.424 37 42.944 38.632C42.464 40.232 41.664 41.944 40.544 43.768C40.448 46.52 40.752 48.744 41.456 50.44C42.16 52.136 43.04 52.984 44.096 52.984C44.768 52.984 45.488 52.648 46.256 51.976C47.056 51.272 47.792 50.312 48.464 49.096C49.136 47.848 49.68 46.408 50.096 44.776C50.544 43.144 50.768 41.4 50.768 39.544C50.768 38.456 50.688 37.32 50.528 36.136C50.4 34.952 50.224 33.816 50 32.728C49.808 31.64 49.6 30.744 49.376 30.04C49.376 29.496 49.6 28.952 50.048 28.408C50.528 27.832 51.136 27.352 51.872 26.968C52.608 26.552 53.36 26.344 54.128 26.344C54.896 26.344 55.632 26.616 56.336 27.16C57.04 27.704 57.616 28.664 58.064 30.04C58.512 31.384 58.736 33.304 58.736 35.8C58.736 39.288 58.288 42.568 57.392 45.64C56.496 48.68 55.28 51.368 53.744 53.704C52.24 56.04 50.576 57.88 48.752 59.224C46.928 60.536 45.072 61.192 43.184 61.192C41.52 61.192 40.144 60.68 39.056 59.656C37.968 58.632 37.12 57.256 36.512 55.528C35.904 53.8 35.472 51.88 35.216 49.768C34.064 52.52 32.816 54.744 31.472 56.44C30.128 58.104 28.784 59.32 27.44 60.088C26.096 60.856 24.816 61.24 23.6 61.24ZM90.7644 47.128C89.5804 46.52 88.2204 46.04 86.6844 45.688C85.1804 45.304 83.5964 45.064 81.9324 44.968C81.5804 46.28 81.2124 47.544 80.8284 48.76C80.4764 49.976 80.1084 51.096 79.7244 52.12C81.1004 52.44 82.4924 52.808 83.9004 53.224C85.3084 53.608 86.6844 53.8 88.0284 53.8C89.0844 53.8 90.0924 53.608 91.0524 53.224C92.0444 52.84 92.9724 52.136 93.8364 51.112C94.4764 51.528 94.9404 52.12 95.2284 52.888C95.5484 53.656 95.7084 54.472 95.7084 55.336C95.7084 56.296 95.5004 57.24 95.0844 58.168C94.7004 59.064 94.0924 59.816 93.2604 60.424C92.4284 61.032 91.3564 61.336 90.0444 61.336C88.8924 61.336 87.5804 61.128 86.1084 60.712C84.6684 60.296 83.1484 59.848 81.5484 59.368C79.9804 58.856 78.4124 58.488 76.8444 58.264C75.7564 59.288 74.7324 60.024 73.7724 60.472C72.8444 60.888 72.0124 61.096 71.2764 61.096C70.3484 61.096 69.5644 60.824 68.9244 60.28C68.2844 59.736 67.8044 59.048 67.4844 58.216C67.1644 57.352 67.0044 56.472 67.0044 55.576C67.0044 54.648 67.1644 53.768 67.4844 52.936C67.8364 52.104 68.3644 51.432 69.0684 50.92C69.7724 50.376 70.6684 50.104 71.7564 50.104C72.2044 50.104 72.6524 50.152 73.1004 50.248C73.6764 48.52 74.1884 46.616 74.6364 44.536C75.1164 42.456 75.5164 40.392 75.8364 38.344C76.1564 36.296 76.3964 34.44 76.5564 32.776C75.5004 32.84 74.4444 33.048 73.3884 33.4C72.3644 33.72 71.3724 34.248 70.4124 34.984C70.4124 32.968 70.5884 31.336 70.9404 30.088C71.2924 28.808 71.9804 27.88 73.0044 27.304C74.0284 26.728 75.5484 26.44 77.5644 26.44C78.6204 26.44 79.8044 26.52 81.1164 26.68C82.4284 26.84 83.7724 27 85.1484 27.16C86.5564 27.288 87.9164 27.368 89.2284 27.4C90.5404 27.432 91.7084 27.336 92.7324 27.112C93.7564 26.856 94.5404 26.392 95.0844 25.72C95.9164 26.232 96.4764 27 96.7644 28.024C97.0844 29.048 97.1164 30.104 96.8604 31.192C96.6044 32.28 96.0284 33.208 95.1324 33.976C94.2364 34.712 92.9724 35.08 91.3404 35.08C90.2524 35.08 89.0844 34.952 87.8364 34.696C86.6204 34.408 85.3564 34.104 84.0444 33.784C83.9484 34.872 83.7884 36.072 83.5644 37.384C83.3404 38.696 83.0844 40.056 82.7964 41.464C83.9804 40.888 85.1804 40.472 86.3964 40.216C87.6124 39.96 88.7004 39.816 89.6604 39.784C90.6204 39.72 91.3244 39.736 91.7724 39.832C92.2204 40.76 92.3644 41.88 92.2044 43.192C92.0444 44.504 91.6764 45.768 91.1004 46.984L90.7644 47.128Z" fill="black"/>
</svg>
